<svg xmlns="http://www.w3.org/2000/svg" viewBox="0 0 332.56 208.45"><defs><style>.cls-1,.cls-2{fill:#171717;}.cls-2{fill-rule:evenodd;}</style></defs><title>Asset 1</title><g id="Layer_2" data-name="Layer 2"><g id="Layer_1-2" data-name="Layer 1"><path class="cls-1" d="M326.63,128.31c-4.65,0-13,3.3-23.86,13.48l2.57-4.15c3.9-6.32,4.24-9.33-3.72-9.33a15.38,15.38,0,0,0-5.73.85s.12,2.17-3.51,8.11l-13.31,21.79H279A36.57,36.57,0,0,1,255,168c-8.78,0-11.86-5.47-9.5-12.54,19.5-3.11,32.74-8.77,36.35-17.35,2-4.8-.12-9.8-10.66-9.8-12.89,0-29.71,8.88-37.54,23.75a49.77,49.77,0,0,1-8.48.85h-2.27a65.21,65.21,0,0,0,4.54-8.58c4.13-9.81,1.47-16-8.14-16-6.51,0-13.93,3.86-21.28,11l1-1.7c4-6.6,4.24-9.33-3.72-9.33a15.32,15.32,0,0,0-5.72.85s.12,2.17-3.52,8.11l-6.27,10.26c-3,1.91-7.51,4.24-12.27,4.73a54.21,54.21,0,0,0,4.16-7.92c4.13-9.81,1.47-16-8.14-16-6.51,0-13.93,3.86-21.28,11l1-1.7c4.06-6.7,4.24-9.33-3.72-9.33a15.38,15.38,0,0,0-5.73.85s.12,2.17-3.51,8.11l-15.84,25.9c-3.58,2.6-7.18,4.08-9.6,4.08-3.73,0-4.47-2.64-1-8.3L118.08,136c3.18-5.09,5.23-6.79,5.23-6.79s-1.26-.94-4.77-.94c-5.07,0-8.16,1.22-11.25,4.62-1.22-2.73-4-4.62-9.21-4.62-12.09,0-29.69,9.9-38.55,30.93-.4.95-.71,1.84-1,2.7-4.08,3.35-8.4,5.31-11.18,5.31-3.73,0-4.37-2.64-1-8.3l32-52.42c4-6.6,4.24-9.34-3.72-9.34A15.33,15.33,0,0,0,69,98s.12,2.17-3.51,8.11l-16,26.31c-1.3-2.55-4.15-4.15-9-4.15-12.09,0-29.69,9.9-38.55,30.93-4.64,11-.11,16.22,8.37,16.22,6,0,13.16-3.77,20.44-10.75-2.49,6.88.74,10.75,7.57,10.75s14.46-4.3,19.46-8.6c-.07,5.81,4,8.6,10.21,8.6,5.89,0,13.12-3.68,20.29-10.66-2.34,6.79.79,10.66,7.61,10.66,4.77,0,9.79-2,14.1-4.7L92.56,199.12c-4,6.6-4.24,9.34,3.72,9.34a15.36,15.36,0,0,0,5.73-.85s-.12-2.17,3.52-8.11l17.54-28.66c1.71,2.83,5.09,4.62,10,4.62,10,0,22.51-7.07,31.5-18.86a34.47,34.47,0,0,0,11.76-3.4l-28.07,45.91c-4,6.6-4.24,9.34,3.72,9.34a15.39,15.39,0,0,0,5.73-.85s-.12-2.17,3.51-8.11l17.54-28.66c1.7,2.83,5.08,4.62,10,4.62,10,0,22.51-7.07,31.46-18.76H222a47.94,47.94,0,0,0,10-.95c-4.86,12.33,1.74,19.71,15,19.71,11.35,0,21.78-5,27.76-9.43l-.06.1c-4,6.6-4.24,9.34,3.72,9.34a15.32,15.32,0,0,0,5.73-.85s-.2-2,3.17-7.54c8.08-13.29,13.95-19.14,20-24.13,5.24-4.34,8-5.57,9.68-5.57s1.85.75,1.3,2.08a16.52,16.52,0,0,1-3.33,4.71,15.41,15.41,0,0,0,4.41.57c5.07,0,10.17-3.77,12.39-9.05C333.83,130.86,331.7,128.31,326.63,128.31ZM269.35,133c2.17,0,3.06,1.32,2.22,3.3-2.62,6.22-10.31,12-24.07,14.71C253.61,139.25,263.46,133,269.35,133ZM17.81,167.25c-3.82,0-5-2.54-2.8-7.82,6.39-15.18,18.35-24.7,25.38-24.7,3.93,0,4.78,2.64,4.92,4.53l-2.79,4.43C36.58,153.11,25.15,167.25,17.81,167.25Zm57.67,0c-3.82,0-5-2.54-2.8-7.82,6.39-15.18,18.35-24.7,25.38-24.7,3.93,0,4.78,2.64,4.92,4.53l-2.79,4.43C94.25,153.11,82.82,167.25,75.49,167.25Zm84.57-27.06a10.9,10.9,0,0,0-7.87,6.41c-1.31,3.11-1,5.66.69,7.45-6.36,9-14.47,15-20.16,15-4.13,0-5.64-2.07-6.14-4.05l2.22-3.58A87.21,87.21,0,0,1,144.18,143c5.66-5.09,9.65-7.45,12.75-7.45C159.62,135.57,160.78,137,160.05,140.19Zm55.74,0a10.91,10.91,0,0,0-7.87,6.41c-1.27,3-1.16,5.47.88,7.26-6.39,9-14.56,15.18-20.35,15.18-4.13,0-5.63-2.07-6.14-4.05l2.23-3.58A87.13,87.13,0,0,1,199.93,143c5.65-5.09,9.64-7.45,12.75-7.45C215.36,135.57,216.52,137,215.79,140.19Z"/><path class="cls-1" d="M90.87,117.76l6.32-16.47H91.31l1.29-3.35h15.75l-1.28,3.35h-5.87l-6.32,16.47Z"/><path class="cls-1" d="M103.32,117.76l7.61-19.82h14.7l-1.29,3.35h-10.7l-1.69,4.4h10L120.63,109h-9.95l-2.08,5.4h11.08l-1.28,3.34Z"/><path class="cls-1" d="M139.67,117.76h-4.35v-4.5h-7.92l-3.37,4.5h-4.25l15.33-19.82h4.23Zm-4.36-7.84.09-7.36-5.5,7.36Z"/><path class="cls-1" d="M141.74,117.76l7.61-19.82h6l-1.6,13.53,8.75-13.53h6l-7.61,19.82h-3.72l6-15.6-9.92,15.6h-3.86l2.07-15.6-6,15.6Z"/><path class="cls-2" d="M263.79,74.27a233.59,233.59,0,0,0-28.31,3.66c-4.37.9-3.41-6.15-3.65-8.82q-.75-8.37-1.64-16.72c-1.11-10.44-2.61-20.77-4.56-31.09-.92-4.84-1.89-9.67-3.2-14.42-1.06-3.84,7.9-4.12,10.26-4.5,4.89-.78,9.8-1.44,14.74-1.75s10-.9,15-.52c8.22.65,21.86.06,27.54,7.4,2.5,3.22,1.4,7.23.8,10.89q-1.35,8.33-2.6,16.68a301.34,301.34,0,0,0-2.84,30.79c-.14,3.22,0,6.43-.11,9.64-.1,2.92-2.94.92-4.44.43-5.41-1.8-11.34-1.43-17-1.69C259.61,74.62,271.69,74.62,263.79,74.27Z"/><path class="cls-2" d="M283.24,85.87A4.19,4.19,0,0,0,282,87.58c3.1.11,6.57-2.74,9.41-3.93a32.33,32.33,0,0,1,12.3-2.42c6.86,0,13.27,4.91,11.07,12.45-2.14,7.34-7.13,12.12-13.65,15.57a40,40,0,0,1-13.07,3.89c-.82.12-1.61.48-2.42.55a6.06,6.06,0,0,1-1.71-.35,6,6,0,0,1,.51-1.65,26.62,26.62,0,0,0,1.77-2.16c.33-.64.58-1.74.25-2.2a2.43,2.43,0,0,0-2.17-.4c-6.89,2.15-13.66,4.66-20.62,6.54A97.74,97.74,0,0,1,242,117c-8.56.33-17.13.71-25.69.78-8,.07-16-.43-23.78-2.69a22.93,22.93,0,0,1-6.25-3,5.24,5.24,0,0,1-2.4-5.67,5.33,5.33,0,0,1,5.31-4.07,32,32,0,0,1,8.29,1c4.34,1.22,8.53,3,12.78,4.47a6.89,6.89,0,0,0,5.59,0,5.21,5.21,0,0,1,3-.22c6.78,1.32,13.45.52,20.1-.92,10.34-2.23,19.47-7.22,28.51-12.44,1.89-1.09,14.63-9.5,15.75-8.27C283,86.12,283.14,85.77,283.24,85.87ZM225,111c0,.22,0,.43-.05.64a17.89,17.89,0,0,0,2.49.39q3.5.09,7,0a14.19,14.19,0,0,0,3.25-.33c4.5-1.14,9.14-1.8,13.34-4,2.61-1.35,5.43-2.33,7.94-3.84,3.24-1.94,6.27-4.22,9.38-6.38l.58-.74c-2.17.9-4.18,2.1-6.25,3.18-3.8,2-7.6,4-11.47,5.81a41.24,41.24,0,0,1-5,1.88c-2.73.9-5.44,2.08-8.25,2.5-3.67.55-7.45.47-11.17.67-.59,0-1.17.08-1.75.13C225,111.25,225.6,111,225,111Z"/><path class="cls-2" d="M217.09,81.74c0,2.47-2.4,3.39-4.08,4.77-3.45,2.84-3.55-1.44-4-4.13-1.28-7.19-2.43-14.43-4.06-21.55s-3.66-14.2-5.78-21.19c-1-3.19-2-6.38-3.06-9.52-.91-2.59-2.89-5.89-2.5-8.7a9,9,0,0,1,2.77-5.48c2.57-2.11,3.34,2.58,3.92,4.17,2.48,6.77,4.92,13.56,7,20.45,4.19,13.54,6.61,27.42,9.78,41.18C217.08,83.08,216.8,80.47,217.09,81.74Z"/><path class="cls-2" d="M229.35,77.72c0,1.91-3,3.56-4.37,1.81-1.47-1.92-1.2-6.49-1.53-8.84-1-7.16-2.12-14.29-3.47-21.39-1.26-6.61-2.52-13.22-4-19.79q-1.1-4.87-2.46-9.68c-.94-3.31-2.62-6.92-3-10.33-.18-1.69,2.65-3.59,4.11-2.55,1.71,1.22,2.39,6,3,7.89,2.05,6.62,3.53,13.48,4.93,20.27,2.89,14,5.12,28.4,6.78,42.62C229.32,79.09,229.33,77.53,229.35,77.72Z"/></g></g></svg>